<?xml version="1.0" encoding="UTF-8" standalone="no"?>
<!-- Created with Inkscape (http://www.inkscape.org/) -->

<svg
   width="300mm"
   height="220.228mm"
   viewBox="0 0 300 220.228"
   version="1.1"
   id="svg5"
   xml:space="preserve"
   xmlns:xlink="http://www.w3.org/1999/xlink"
   xmlns="http://www.w3.org/2000/svg"
   xmlns:svg="http://www.w3.org/2000/svg"><defs
     id="defs2"><linearGradient
       id="linearGradient5556"><stop
         style="stop-color:#9c9ea1;stop-opacity:1;"
         offset="0.00901785"
         id="stop5552" /><stop
         style="stop-color:#ffffff;stop-opacity:1;"
         offset="0.4291921"
         id="stop6493" /><stop
         style="stop-color:#9c9ea1;stop-opacity:1;"
         offset="0.86981624"
         id="stop5554" /></linearGradient><linearGradient
       id="linearGradient1715"><stop
         style="stop-color:#8ad6f6;stop-opacity:1;"
         offset="0"
         id="stop1711" /><stop
         style="stop-color:#2692ca;stop-opacity:1;"
         offset="0.4816514"
         id="stop2616" /><stop
         style="stop-color:#313d80;stop-opacity:1;"
         offset="1"
         id="stop1713" /></linearGradient><radialGradient
       xlink:href="#linearGradient1715"
       id="radialGradient1717"
       cx="150.77705"
       cy="94.360283"
       fx="150.77705"
       fy="94.360283"
       r="46.173244"
       gradientUnits="userSpaceOnUse"
       gradientTransform="matrix(0.70613861,0,0,0.70613861,-42.952851,45.795333)" /><linearGradient
       xlink:href="#linearGradient5556"
       id="linearGradient5558"
       x1="184.34474"
       y1="74.769852"
       x2="120.83865"
       y2="133.07959"
       gradientUnits="userSpaceOnUse"
       gradientTransform="matrix(0.70613861,0,0,0.70613861,-62.787562,-31.312105)" /><radialGradient
       xlink:href="#linearGradient1715"
       id="radialGradient1717-7"
       cx="150.77705"
       cy="94.360283"
       fx="150.77705"
       fy="94.360283"
       r="46.173244"
       gradientUnits="userSpaceOnUse" /><linearGradient
       xlink:href="#linearGradient5556"
       id="linearGradient5558-3"
       x1="184.34474"
       y1="74.769852"
       x2="120.83865"
       y2="133.07959"
       gradientUnits="userSpaceOnUse" /></defs><g
     id="g278"
     transform="matrix(1.23838,0,0,1.23838,207.18218,-49.78735)"><path
       id="path11751"
       style="font-weight:bold;font-size:42.1795px;font-family:'Handel Gothic';-inkscape-font-specification:'Handel Gothic Bold';fill:#313d80;fill-opacity:1;stroke-width:74.099;paint-order:markers stroke fill"
       d="m 35.500552,182.92881 c -0.206873,-0.002 -0.412667,6.4e-4 -0.617935,0.007 -0.772913,0 -1.546049,0.051 -2.318912,0.15251 -0.772876,0.10151 -1.521609,0.24074 -2.24618,0.41841 -1.980475,0.53301 -3.586607,1.43446 -4.818383,2.70355 -1.2076,1.24371 -2.125343,2.86784 -2.75328,4.873 v 0.0382 c -0.26568,0.86298 -0.459068,1.82735 -0.579858,2.8934 -0.120786,1.04064 -0.181094,2.09417 -0.181094,3.16018 0,1.06604 0.06028,2.1191 0.181094,3.15976 0.144918,1.04065 0.33834,2.00549 0.579858,2.89385 0.579643,2.05594 1.497363,3.71821 2.75328,4.9873 1.25592,1.2437 2.86205,2.10701 4.818383,2.58927 0.724571,0.1777 1.461321,0.31688 2.21004,0.4184 0.748751,0.10151 1.497463,0.15251 2.246188,0.15251 0.845321,0 1.678295,-0.051 2.499496,-0.15251 0.821157,-0.0762 1.618223,-0.21533 2.39111,-0.4184 1.980502,-0.48226 3.599069,-1.34557 4.854995,-2.58927 1.255916,-1.26909 2.173635,-2.93136 2.753279,-4.9873 0.265708,-0.93912 0.458614,-1.92924 0.579379,-2.96988 0.120785,-1.04067 0.181091,-2.10658 0.181091,-3.198 0,-1.01526 -0.07235,-2.03065 -0.217193,-3.04591 -0.120786,-1.01528 -0.301714,-1.97966 -0.543247,-2.8934 -0.579642,-2.00516 -1.485385,-3.64217 -2.717168,-4.91127 -1.23176,-1.26908 -2.813958,-2.15765 -4.746126,-2.6653 -0.772877,-0.22839 -1.581921,-0.39337 -2.427245,-0.4949 -0.634004,-0.0762 -1.261133,-0.11648 -1.881555,-0.12128 z m -176.673592,0.54013 -15.95078,0.0379 c -3.096,0 -5.55941,0.58395 -7.39009,1.75152 -1.80373,1.14217 -2.73257,3.29974 -2.78644,6.47247 -0.0269,3.02043 0.82102,5.11459 2.54401,6.28215 1.74993,1.14219 4.11879,1.70041 7.10711,1.67503 l 7.18822,0.0382 c 1.10381,0.0253 2.05942,0.17745 2.86708,0.45667 0.80766,0.2792 1.27891,1.01522 1.41352,2.20817 0.18844,1.52291 -0.21506,2.50015 -1.21115,2.93164 -0.96919,0.43149 -2.12707,0.63457 -3.47315,0.60918 h -15.26455 v 4.87348 h 16.23377 c 3.09598,0 5.54576,-0.55868 7.34951,-1.67549 1.80374,-1.14217 2.73257,-3.29973 2.78644,-6.47247 0,-0.25379 -0.0131,-0.49455 -0.04,-0.72299 0,-0.25384 -0.0135,-0.5079 -0.0405,-0.76173 -0.0807,-0.8376 -0.28252,-1.64989 -0.60559,-2.43674 -0.32306,-0.78683 -0.80795,-1.45945 -1.45407,-2.01786 -0.69998,-0.63454 -1.50745,-1.06596 -2.42279,-1.2944 -0.91535,-0.2538 -1.84417,-0.40588 -2.78645,-0.45666 -0.32306,-0.0253 -0.64614,-0.0382 -0.96921,-0.0382 -0.32307,0 -0.63251,-0.0122 -0.92863,-0.0378 l -8.07683,0.0378 c -1.02303,0 -1.92505,-0.22832 -2.7058,-0.68521 -0.75381,-0.45688 -1.1305,-1.21818 -1.1305,-2.28422 0,-1.39599 0.44444,-2.33509 1.33287,-2.81736 0.91533,-0.50764 2.03227,-0.77458 3.35144,-0.79997 h 15.06268 z m 122.038705,0 -11.774553,0.0379 c -3.936836,0 -6.895331,1.01537 -8.875842,3.04592 -1.956321,2.03054 -3.067464,5.20348 -3.333127,9.5184 -0.02432,0.38072 -0.04794,0.76113 -0.07228,1.14187 0,0.38072 0.0113,0.77447 0.03596,1.18058 0.04826,1.87825 0.362358,3.71833 0.94202,5.52044 0.579664,1.77673 1.594061,3.28693 3.04322,4.53065 1.207607,1.04065 2.511646,1.70041 3.912479,1.97961 1.400849,0.25383 2.849938,0.38109 4.347389,0.38109 h 11.774562 v -16.21895 h -12.933779 v 4.83523 h 7.318364 v 6.43422 l -6.159143,0.0378 c -2.584299,0 -4.262698,-0.83757 -5.03559,-2.51277 -0.748717,-1.6752 -1.123097,-3.66736 -1.123097,-5.9771 v -0.0382 -0.0761 c 0,-2.25898 0.37438,-4.32787 1.123097,-6.20614 0.772892,-1.90363 2.451294,-2.86801 5.035594,-2.89339 h 11.774556 z m 4.528453,0 v 27.33636 h 5.7242917 v -27.33636 z m 11.1220298,0 4.959e-4,27.33636 h 5.4704514 v -10.73676 h 6.4485768 l 5.7237921,10.73676 h 6.159135 l -6.485196,-11.38373 c 1.811429,-0.45687 3.139908,-1.37072 3.985241,-2.74133 0.869521,-1.396 1.292202,-3.04588 1.268029,-4.94952 0,-0.17769 -0.0113,-0.35547 -0.03596,-0.53315 v -0.53314 c -0.07247,-0.93913 -0.27783,-1.8525 -0.615959,-2.74086 -0.314022,-0.88838 -0.797026,-1.66255 -1.449138,-2.32246 -0.724549,-0.76147 -1.570009,-1.28203 -2.536096,-1.56123 -0.941943,-0.27919 -1.908008,-0.44414 -2.898247,-0.49489 -0.26568,-0.0253 -0.531374,-0.0382 -0.797047,-0.0382 -0.241523,0 -0.495235,-0.0122 -0.7609418,-0.0379 z m 77.1668112,0 -14.310188,0.0379 c -2.777519,0 -4.987282,0.58395 -6.629661,1.75152 -1.618206,1.14217 -2.451686,3.29974 -2.499977,6.47247 -0.02432,3.02043 0.737039,5.11459 2.282786,6.28216 1.569895,1.14218 3.694926,1.70041 6.375837,1.67503 l 6.448594,0.0382 c 0.990244,0.0253 1.848146,0.17745 2.572694,0.45667 0.72456,0.2792 1.146805,1.01522 1.267571,2.20816 0.169075,1.52292 -0.19284,2.50016 -1.086475,2.93166 -0.869507,0.43148 -1.90831,0.63456 -3.115945,0.60917 H 51.29398 v 4.87348 h 14.563978 c 2.777524,0 4.975353,-0.55868 6.593572,-1.67548 1.61819,-1.14218 2.451142,-3.29974 2.499474,-6.47248 0,-0.25379 -0.0113,-0.49455 -0.03613,-0.72299 0,-0.2538 -0.0113,-0.5079 -0.03596,-0.76173 -0.07247,-0.8376 -0.253879,-1.64989 -0.543714,-2.43673 -0.289825,-0.78684 -0.724507,-1.45947 -1.304182,-2.01787 -0.627942,-0.63454 -1.352246,-1.06596 -2.173433,-1.29439 -0.82117,-0.25384 -1.654638,-0.40589 -2.49996,-0.45667 -0.289825,-0.0253 -0.57944,-0.0382 -0.869279,-0.0382 -0.289845,0 -0.567489,-0.0122 -0.833165,-0.0378 l -7.246121,0.0378 c -0.917782,0 -1.726832,-0.2283 -2.427243,-0.68521 -0.676266,-0.45687 -1.014247,-1.21817 -1.014247,-2.28421 0,-1.39601 0.398276,-2.33511 1.195303,-2.81737 0.821191,-0.50764 1.823644,-0.77458 3.007119,-0.79997 h 13.513145 z m -38.692006,4.18781 c 0.458888,0 0.918003,0.0381 1.376882,0.11427 0.458876,0.0762 0.893575,0.19056 1.304185,0.34285 1.110999,0.38073 1.980351,1.01522 2.608303,1.90358 0.627963,0.86299 1.062659,1.87836 1.304175,3.04592 0.144918,0.65994 0.253557,1.34497 0.326045,2.05565 0.09667,0.68532 0.145117,1.37081 0.145117,2.05613 0,0.71068 -0.04826,1.42144 -0.145117,2.13213 -0.07247,0.68533 -0.181068,1.35796 -0.326045,2.01786 -0.241498,1.16758 -0.676212,2.1825 -1.304175,3.04546 -0.627952,0.86299 -1.497304,1.49795 -2.608303,1.90406 -0.41061,0.1523 -0.845309,0.26624 -1.304185,0.34237 -0.458879,0.0762 -0.917994,0.11428 -1.376882,0.11428 -0.458903,0 -0.917509,-0.0381 -1.376405,-0.11428 -0.458886,-0.0762 -0.894067,-0.19003 -1.30466,-0.34237 -1.110996,-0.40611 -1.980351,-1.04107 -2.608339,-1.90406 -0.603805,-0.86296 -1.038485,-1.87788 -1.304145,-3.04546 -0.144919,-0.6599 -0.265573,-1.33253 -0.362172,-2.01786 -0.07247,-0.71069 -0.108769,-1.42145 -0.108769,-2.13213 0,-0.68532 0.03628,-1.37081 0.108769,-2.05613 0.07245,-0.71068 0.193086,-1.40859 0.362172,-2.09389 v 0.0382 c 0.289832,-1.16756 0.736457,-2.18294 1.340289,-3.04592 0.603815,-0.86298 1.461199,-1.49748 2.572195,-1.90359 0.410593,-0.15226 0.845774,-0.26669 1.30466,-0.34283 0.458896,-0.0762 0.917502,-0.11427 1.376405,-0.11427 z m -33.0038579,0.68522 h 6.7018907 v 0.0382 c 1.2317544,0 2.3428992,0.16498 3.3331462,0.4949 1.014412,0.32997 1.521862,1.30721 1.521862,2.93164 0.02433,1.57368 -0.446933,2.55092 -1.413003,2.93166 -0.941937,0.35534 -1.99273,0.53314 -3.1520795,0.53314 H 8.8339929 c -0.048265,0 -0.096605,-0.0128 -0.1450907,-0.0382 H 1.9869894 Z m -137.9103251,2.39895 v 12.75416 c 0,2.84277 0.79433,4.77199 2.38271,5.78725 1.58839,1.01528 3.74186,1.52297 6.46096,1.52297 h 10.58025 v -20.06438 h -5.61296 v 15.64757 l -4.52302,0.0382 c -1.37299,0 -2.32864,-0.22833 -2.86707,-0.68522 -0.53845,-0.45688 -0.80743,-1.35785 -0.80743,-2.70309 v -12.2975 z m 24.51242,0 v 27.2981 h 5.61295 v -7.23372 h 4.84608 c 1.642235,0 3.190452,-0.17782 4.644235,-0.53315 1.453776,-0.35534 2.718857,-1.19291 3.795746,-2.51277 0.8884,-1.04066 1.507797,-2.20811 1.857784,-3.50257 0.349977,-1.29448 0.484461,-2.61447 0.403704,-3.95971 -0.134591,-2.9443 -1.103893,-5.2668 -2.907652,-6.96738 -1.776843,-1.70059 -4.253406,-2.56342 -7.430167,-2.5888 z m 42.321006,0 -8.197528,0.0378 c -1.507638,0 -2.974954,0.17782 -4.401793,0.53315 -1.39993,0.32997 -2.638221,1.05314 -3.715115,2.16993 -0.834553,0.86299 -1.45394,1.85309 -1.857783,2.9699 -0.376893,1.09142 -0.605935,2.20833 -0.686698,3.35052 -0.02698,0.17769 -0.04013,0.35501 -0.04013,0.53268 v 0.49536 0.38063 0.38062 c 0.08073,1.19295 0.309313,2.3604 0.686214,3.50259 0.403822,1.14218 1.03685,2.15756 1.898353,3.04593 1.076877,1.09141 2.315168,1.81504 3.715097,2.17039 1.426845,0.32996 2.89416,0.4949 4.401796,0.4949 h 8.197528 v -4.18826 l -7.470733,0.0382 c -1.642249,0 -2.907808,-0.19067 -3.796232,-0.57142 -0.888397,-0.38071 -1.359146,-1.44662 -1.413012,-3.19797 h 12.679975 v -4.18779 l -12.679975,0.0379 c 0.05396,-1.6752 0.551881,-2.71585 1.494147,-3.12195 0.942254,-0.4315 2.194195,-0.65985 3.755656,-0.68522 h 7.430172 z m 3.593859,0 v 20.06438 h 5.613435 v -16.18118 h 0.282497 0.323107 c 1.938339,0 3.055803,0.15256 3.351919,0.45713 0.323072,0.30457 0.484365,1.38336 0.484365,3.23623 v 0.4184 0.41888 l 5.371014,0.0382 v -0.64743 -0.60918 c 0.02708,-2.18284 -0.201662,-3.92139 -0.686219,-5.21585 -0.484589,-1.29448 -2.248208,-1.95424 -5.290391,-1.97963 z m -38.165095,4.33799 c 1.98286,0.001 3.693425,0.19256 5.132066,0.57328 1.534543,0.40609 2.342526,1.94157 2.423283,4.60666 0.08073,3.17273 -0.686775,5.02567 -2.302068,5.55869 -1.615301,0.50764 -3.715191,0.74884 -6.299671,0.72348 h -0.5655 c -0.16155,0 -0.33648,-0.0128 -0.52493,-0.0382 v -11.38373 h 0.848 c 0.29614,0 0.59243,-0.0122 0.88859,-0.0378 0.13458,-0.002 0.26805,-0.002 0.40023,-0.002 z" /><g
       id="g6510"
       transform="matrix(1.0540944,0,0,1.0540944,-191.74821,-7.6006289)"><circle
         style="fill:url(#radialGradient1717-7);fill-opacity:1;stroke-width:39.7361;paint-order:markers stroke fill"
         id="path731-6"
         cx="135.09001"
         cy="112.46072"
         r="46.173244"
         transform="translate(-1.1786334e-5)" /><path
         style="fill:url(#linearGradient5558-3);fill-opacity:1;stroke-width:0.890197"
         d="m 110.46284,96.743672 c -4.85253,-9.983029 -5.74045,-16.640569 -5.74045,-24.671406 0,-5.560642 2.68045,-12.237629 9.30731,-15.647929 3.99948,-2.058204 6.31191,-3.355358 14.07435,-3.355358 5.74149,0 12.09621,0.831728 12.09621,0.831728 0,0 -12.99925,-8.549701 -29.81565,-8.549701 -22.18288,0 -27.907911,24.551463 -11.063192,57.165954 8.790762,17.02055 23.280472,34.06842 39.856762,46.56204 11.96754,9.01999 25.02269,15.14296 37.80606,19.65276 8.75353,3.08812 16.95441,4.62119 22.09267,4.62119 2.04489,0 2.77805,-0.22407 2.77805,-0.22407 0,0 -21.08967,-6.9287 -38.54481,-18.97783 -11.80129,-8.14633 -21.38826,-15.76498 -30.91265,-26.07375 -9.18624,-9.94276 -17.60247,-22.42109 -21.93466,-31.333628 z"
         id="path432" /></g></g></svg>
